Episode Summary from http://www.tv.com/the-dead-zone/unaired-pilot/episode/284334/summary.html
The unaired pilot is an earlier version of the first two episodes of the series, "Wheel of Fortune," and "What It Seems." The main differences are that several scenes were re-filmed, and two actors (Reverend Purdy and Dana Bright) were later re-cast. See the episode review for more information.



Mediainfo:
General
Complete name                    : C:The.Dead.Zone.S01E00.Unaired.Pilot.DVDRip.XviD-SFMThe.Dead.Zone.S01E00.Unaired.Pilot.DVDRip.XviD-SFM.avi
Format                           : AVI
Format/Info                      : Audio Video Interleave
File size                        : 699 MiB
Duration                         : 1h 24mn
Overall bit rate                 : 1 159 Kbps
Writing application              : VirtualDubMod 1.4.13
Writing library                  : VirtualDub build 14328/release

Video
ID                               : 0
Format                           : MPEG-4 Visual
Format settings, BVOP            : No
Format settings, QPel            : No
Format settings, GMC             : No warppoints
Format settings, Matrix          : Default (H.263)
Codec ID                         : XVID
Codec ID/Hint                    : XviD
Duration                         : 1h 24mn
Bit rate                         : 1 031 Kbps
Width                            : 576 pixels
Height                           : 320 pixels
Display aspect ratio             : 16:9
Frame rate                       : 23.976 fps
Resolution                       : 24 bits
Colorimetry                      : 4:2:0
Scan type                        : Progressive
Bits/(Pixel*Frame)               : 0.233
Stream size                      : 622 MiB (89%)

Audio
ID                               : 1
Format                           : MPEG Audio
Format version                   : Version 1
Format profile                   : Layer 3
Codec ID                         : 55
Codec ID/Hint                    : MP3
Duration                         : 1h 24mn
Bit rate mode                    : Variable
Bit rate                         : 115 Kbps
Nominal bit rate                 : 128 Kbps
Channel(s)                       : 2 channels
Sampling rate                    : 48.0 KHz
Resolution                       : 16 bits
Stream size                      : 69.6 MiB (10%)
Alignment                        : Aligned on interleaves
Interleave, duration             : 24 ms (0.58 video frame)
Interleave, preload duration     : 405 ms
Writing library                  : LAME3.92 
Encoding settings                : -m j -V 0 -q 2 -lowpass 16.5 --abr 128

